<mxfile host="app.diagrams.net" modified="2022-11-18T06:57:41.454Z" agent="5.0 (Windows NT 10.0; Win64; x64) AppleWebKit/537.36 (KHTML, like Gecko) Chrome/105.0.0.0 Safari/537.36" etag="Mit46shohx0TBGaj4dS2" version="20.5.3" type="github">
  <diagram id="86hiwTIjW4kHDFP-Wqco" name="第 1 页">
    <mxGraphModel dx="2062" dy="1066" grid="1" gridSize="10" guides="1" tooltips="1" connect="1" arrows="1" fold="1" page="1" pageScale="1" pageWidth="827" pageHeight="1169" math="0" shadow="0">
      <root>
        <mxCell id="0" />
        <mxCell id="1" parent="0" />
        <mxCell id="2OA1NaoUWb7zckuuHe9Q-2" value="磁盘文件 /chcore/file_a" style="rounded=0;whiteSpace=wrap;html=1;" vertex="1" parent="1">
          <mxGeometry x="190" y="460" width="140" height="40" as="geometry" />
        </mxCell>
        <mxCell id="2OA1NaoUWb7zckuuHe9Q-5" style="edgeStyle=orthogonalEdgeStyle;rounded=0;orthogonalLoop=1;jettySize=auto;html=1;exitX=1;exitY=0.5;exitDx=0;exitDy=0;exitPerimeter=0;entryX=0;entryY=0.5;entryDx=0;entryDy=0;curved=1;" edge="1" parent="1" source="2OA1NaoUWb7zckuuHe9Q-3" target="2OA1NaoUWb7zckuuHe9Q-2">
          <mxGeometry relative="1" as="geometry" />
        </mxCell>
        <mxCell id="2OA1NaoUWb7zckuuHe9Q-3" value="文件副本" style="whiteSpace=wrap;html=1;shape=mxgraph.basic.document" vertex="1" parent="1">
          <mxGeometry x="90" y="390" width="60" height="70" as="geometry" />
        </mxCell>
        <mxCell id="2OA1NaoUWb7zckuuHe9Q-8" style="edgeStyle=orthogonalEdgeStyle;rounded=0;orthogonalLoop=1;jettySize=auto;html=1;exitX=1;exitY=0.5;exitDx=0;exitDy=0;exitPerimeter=0;entryX=0;entryY=0.5;entryDx=0;entryDy=0;curved=1;" edge="1" parent="1" source="2OA1NaoUWb7zckuuHe9Q-4" target="2OA1NaoUWb7zckuuHe9Q-2">
          <mxGeometry relative="1" as="geometry" />
        </mxCell>
        <mxCell id="2OA1NaoUWb7zckuuHe9Q-4" value="文件副本" style="whiteSpace=wrap;html=1;shape=mxgraph.basic.document" vertex="1" parent="1">
          <mxGeometry x="90" y="500" width="60" height="70" as="geometry" />
        </mxCell>
        <mxCell id="2OA1NaoUWb7zckuuHe9Q-9" value="磁盘文件 /chcore/file_a" style="rounded=0;whiteSpace=wrap;html=1;" vertex="1" parent="1">
          <mxGeometry x="590" y="460" width="140" height="40" as="geometry" />
        </mxCell>
        <mxCell id="2OA1NaoUWb7zckuuHe9Q-10" style="edgeStyle=orthogonalEdgeStyle;rounded=0;orthogonalLoop=1;jettySize=auto;html=1;exitX=1;exitY=0.5;exitDx=0;exitDy=0;exitPerimeter=0;entryX=0;entryY=0.5;entryDx=0;entryDy=0;curved=1;" edge="1" parent="1" source="2OA1NaoUWb7zckuuHe9Q-11" target="2OA1NaoUWb7zckuuHe9Q-9">
          <mxGeometry relative="1" as="geometry" />
        </mxCell>
        <mxCell id="2OA1NaoUWb7zckuuHe9Q-11" value="文件副本（修改）" style="whiteSpace=wrap;html=1;shape=mxgraph.basic.document;fillColor=#E6E6E6;" vertex="1" parent="1">
          <mxGeometry x="490" y="390" width="60" height="70" as="geometry" />
        </mxCell>
        <mxCell id="2OA1NaoUWb7zckuuHe9Q-12" style="edgeStyle=orthogonalEdgeStyle;rounded=0;orthogonalLoop=1;jettySize=auto;html=1;exitX=1;exitY=0.5;exitDx=0;exitDy=0;exitPerimeter=0;entryX=0;entryY=0.5;entryDx=0;entryDy=0;curved=1;" edge="1" parent="1" source="2OA1NaoUWb7zckuuHe9Q-13" target="2OA1NaoUWb7zckuuHe9Q-9">
          <mxGeometry relative="1" as="geometry" />
        </mxCell>
        <mxCell id="2OA1NaoUWb7zckuuHe9Q-13" value="文件副本" style="whiteSpace=wrap;html=1;shape=mxgraph.basic.document" vertex="1" parent="1">
          <mxGeometry x="490" y="500" width="60" height="70" as="geometry" />
        </mxCell>
        <mxCell id="2OA1NaoUWb7zckuuHe9Q-14" value="" style="shape=image;html=1;verticalAlign=top;verticalLabelPosition=bottom;labelBackgroundColor=#ffffff;imageAspect=0;aspect=fixed;image=https://cdn4.iconfinder.com/data/icons/ui-office/512/User_Interface-49-128.png;fillColor=#FF3333;imageBackground=none;fontColor=#FF3333;strokeColor=#FF3333;" vertex="1" parent="1">
          <mxGeometry x="530" y="550" width="40" height="40" as="geometry" />
        </mxCell>
        <mxCell id="2OA1NaoUWb7zckuuHe9Q-15" value="" style="shape=flexArrow;endArrow=classic;html=1;rounded=0;fontColor=#FF3333;curved=1;fillColor=#000000;fillStyle=hatch;" edge="1" parent="1">
          <mxGeometry width="50" height="50" relative="1" as="geometry">
            <mxPoint x="374" y="479.5" as="sourcePoint" />
            <mxPoint x="454" y="479.5" as="targetPoint" />
          </mxGeometry>
        </mxCell>
      </root>
    </mxGraphModel>
  </diagram>
</mxfile>
